<svg xmlns="http://www.w3.org/2000/svg" xmlns:xlink="http://www.w3.org/1999/xlink" width="500" zoomAndPan="magnify" viewBox="0 0 375 374.999991" height="500" preserveAspectRatio="xMidYMid meet" version="1.0"><defs><g/><clipPath id="c02e4a46d3"><path d="M 25.226562 140.640625 L 107.726562 140.640625 L 107.726562 217.890625 L 25.226562 217.890625 Z M 25.226562 140.640625 " clip-rule="nonzero"/></clipPath></defs><rect x="-37.5" width="450" fill="#ffffff" y="-37.499999" height="449.999989" fill-opacity="1"/><rect x="-37.5" width="450" fill="#ffffff" y="-37.499999" height="449.999989" fill-opacity="1"/><rect x="-37.5" width="450" fill="#ffffff" y="-37.499999" height="449.999989" fill-opacity="1"/><path fill="#d2302c" d="M -10.402344 -14.875 L 382.34375 -14.875 L 382.34375 372.339844 L -10.402344 372.339844 Z M -10.402344 -14.875 " fill-opacity="1" fill-rule="nonzero"/><g clip-path="url(#c02e4a46d3)"><path fill="#ffffff" d="M 58.449219 216.96875 C 48.570312 214.847656 41.085938 210.722656 34.445312 203.742188 C 28.074219 197.050781 25.21875 189.945312 25.226562 180.789062 C 25.230469 174.65625 26.230469 170.175781 28.824219 164.699219 C 34.011719 153.753906 43.558594 145.757812 55.695312 142.195312 C 62.339844 140.242188 71.191406 140.269531 77.324219 142.261719 C 79.152344 142.855469 79.355469 143.042969 79.238281 144.054688 C 79.089844 145.351562 79.046875 145.355469 73.996094 144.378906 C 61.683594 142.003906 49.996094 145.785156 40.582031 155.199219 C 32.402344 163.378906 28.621094 172.925781 29.15625 184.058594 C 29.585938 193.039062 33.679688 200.578125 40.785156 205.464844 C 48.519531 210.785156 58.710938 213.972656 67.988281 213.972656 C 78.777344 213.972656 87.140625 210.515625 94.121094 203.171875 C 99.28125 197.734375 102.257812 191.070312 103.222656 182.785156 C 104.546875 171.386719 101.253906 161.441406 93.59375 153.6875 C 91.71875 151.792969 89.5625 149.875 88.800781 149.429688 C 88.039062 148.984375 87.414062 148.296875 87.414062 147.90625 C 87.414062 144.894531 95.636719 149.589844 99.996094 155.089844 C 110.304688 168.085938 110.300781 188.957031 99.992188 202.65625 C 94.550781 209.882812 87.582031 214.496094 78.699219 216.746094 C 75.152344 217.648438 73.59375 217.800781 68.296875 217.777344 C 63.972656 217.753906 60.964844 217.507812 58.449219 216.96875 Z M 59.371094 199.511719 C 58.355469 199.34375 57.351562 198.9375 57.140625 198.605469 C 56.929688 198.273438 56.753906 193.921875 56.75 188.9375 L 56.746094 179.878906 L 55.660156 179.382812 C 54.28125 178.757812 54.359375 176.910156 55.785156 176.28125 C 56.730469 175.867188 56.746094 175.753906 56.746094 167.710938 C 56.746094 161 56.855469 159.464844 57.378906 159.027344 C 57.828125 158.65625 59.25 158.554688 62.171875 158.6875 C 66.949219 158.902344 69.285156 159.785156 71.863281 162.351562 C 74.023438 164.507812 74.714844 166 74.941406 169.015625 C 75.109375 171.238281 74.96875 171.921875 73.914062 173.988281 L 72.691406 176.386719 L 74.152344 176.914062 C 76.15625 177.636719 79.285156 180.601562 80.230469 182.664062 C 80.703125 183.707031 81.011719 185.375 81.015625 186.949219 C 81.046875 195.652344 71.121094 201.417969 59.371094 199.511719 Z M 70.6875 194.832031 C 76.292969 192.378906 78.410156 186.738281 75.273438 182.625 C 73.421875 180.195312 72.105469 179.773438 66.226562 179.71875 L 61.003906 179.671875 L 61.003906 196.1875 L 64.730469 195.996094 C 67.347656 195.859375 69.121094 195.515625 70.6875 194.832031 Z M 64.925781 176.007812 C 67.738281 175.402344 70.15625 173.1875 70.605469 170.804688 C 71.042969 168.460938 69.84375 165.652344 67.75 164.136719 C 66.101562 162.941406 62.164062 161.769531 61.394531 162.242188 C 61.179688 162.375 61.003906 165.636719 61.003906 169.488281 C 61.003906 177.449219 60.683594 176.914062 64.925781 176.007812 Z M 64.925781 176.007812 " fill-opacity="1" fill-rule="nonzero"/></g><g fill="#ffffff" fill-opacity="1"><g transform="translate(113.50504, 192.526324)"><g><path d="M 2.796875 11.078125 C 3.617188 10.960938 4.222656 10.789062 4.609375 10.5625 C 5.003906 10.34375 5.273438 9.972656 5.421875 9.453125 C 5.566406 8.929688 5.640625 8.128906 5.640625 7.046875 C 5.640625 5.484375 5.660156 4.140625 5.703125 3.015625 L 5.765625 -2.234375 L 5.765625 -18.90625 C 5.765625 -20.164062 5.554688 -21.046875 5.140625 -21.546875 C 4.734375 -22.054688 4.023438 -22.3125 3.015625 -22.3125 L 2.40625 -22.3125 L 2.234375 -22.53125 L 2.40625 -24.375 C 4.007812 -24.632812 5.601562 -24.941406 7.1875 -25.296875 C 8.769531 -25.648438 9.785156 -25.882812 10.234375 -26 L 10.5625 -25.5625 C 10.53125 -25.375 10.445312 -24.972656 10.3125 -24.359375 C 10.1875 -23.742188 10.085938 -23.132812 10.015625 -22.53125 L 10.234375 -22.140625 C 13.734375 -24.566406 15.894531 -25.78125 16.71875 -25.78125 C 18.84375 -25.78125 20.722656 -25.285156 22.359375 -24.296875 C 24.003906 -23.304688 25.273438 -21.914062 26.171875 -20.125 C 27.066406 -18.34375 27.515625 -16.296875 27.515625 -13.984375 C 27.515625 -11.335938 26.878906 -8.894531 25.609375 -6.65625 C 24.335938 -4.414062 22.640625 -2.632812 20.515625 -1.3125 C 18.390625 0.0078125 16.082031 0.671875 13.59375 0.671875 C 12.769531 0.671875 11.957031 0.640625 11.15625 0.578125 C 10.351562 0.523438 9.800781 0.484375 9.5 0.453125 L 9.5625 6.203125 C 9.5625 7.921875 9.738281 9.085938 10.09375 9.703125 C 10.445312 10.316406 11.144531 10.625 12.1875 10.625 L 14.09375 10.5625 L 14.203125 10.734375 L 13.75 12.859375 L 8.4375 12.859375 C 7.101562 12.859375 5.863281 12.914062 4.71875 13.03125 C 3.582031 13.144531 2.847656 13.21875 2.515625 13.25 Z M 15.15625 -2.40625 C 17.65625 -2.40625 19.617188 -3.253906 21.046875 -4.953125 C 22.484375 -6.648438 23.203125 -8.96875 23.203125 -11.90625 C 23.203125 -13.769531 22.875 -15.46875 22.21875 -17 C 21.570312 -18.53125 20.679688 -19.742188 19.546875 -20.640625 C 18.410156 -21.535156 17.171875 -21.984375 15.828125 -21.984375 C 15.078125 -21.984375 14.160156 -21.726562 13.078125 -21.21875 C 12.003906 -20.71875 10.984375 -20.054688 10.015625 -19.234375 C 9.710938 -14.347656 9.5625 -9.09375 9.5625 -3.46875 C 10.3125 -3.164062 11.195312 -2.910156 12.21875 -2.703125 C 13.238281 -2.503906 14.21875 -2.40625 15.15625 -2.40625 Z M 15.15625 -2.40625 "/></g></g></g><g fill="#ffffff" fill-opacity="1"><g transform="translate(143.034385, 192.526324)"><g><path d="M 1.734375 -1.625 C 2.773438 -1.914062 3.507812 -2.285156 3.9375 -2.734375 C 4.363281 -3.179688 4.625 -3.722656 4.71875 -4.359375 C 4.8125 -4.992188 4.859375 -6.054688 4.859375 -7.546875 L 4.859375 -35 C 4.859375 -36.15625 4.726562 -36.9375 4.46875 -37.34375 C 4.207031 -37.757812 3.671875 -37.96875 2.859375 -37.96875 C 2.671875 -37.96875 2.238281 -37.929688 1.5625 -37.859375 L 1.390625 -37.96875 L 1.625 -39.875 C 4.75 -40.320312 7.503906 -40.863281 9.890625 -41.5 L 10.234375 -40.765625 C 9.828125 -40.128906 9.460938 -36.140625 9.140625 -28.796875 C 8.828125 -21.453125 8.671875 -13.679688 8.671875 -5.484375 C 8.671875 -4.359375 8.816406 -3.550781 9.109375 -3.0625 C 9.410156 -2.582031 9.914062 -2.34375 10.625 -2.34375 L 12.578125 -2.453125 L 12.6875 -2.234375 L 12.25 0.171875 C 9.789062 0.0546875 8.128906 0 7.265625 0 C 6.003906 0 4.085938 0.222656 1.515625 0.671875 Z M 1.734375 -1.625 "/></g></g></g><g fill="#ffffff" fill-opacity="1"><g transform="translate(156.680521, 192.526324)"><g><path d="M 20.796875 0.671875 C 17.773438 0.671875 16.117188 -0.835938 15.828125 -3.859375 L 15.609375 -3.921875 C 14.265625 -2.578125 13.039062 -1.507812 11.9375 -0.71875 C 10.84375 0.0625 10.015625 0.453125 9.453125 0.453125 C 7.359375 0.453125 5.640625 -0.195312 4.296875 -1.5 C 2.960938 -2.8125 2.296875 -4.472656 2.296875 -6.484375 C 2.296875 -7.566406 2.566406 -8.515625 3.109375 -9.328125 C 3.648438 -10.148438 4.363281 -10.691406 5.25 -10.953125 L 15.875 -13.875 L 15.9375 -16.328125 C 15.9375 -18.191406 15.503906 -19.644531 14.640625 -20.6875 C 13.785156 -21.726562 12.578125 -22.25 11.015625 -22.25 C 9.972656 -22.25 8.875 -22.003906 7.71875 -21.515625 C 6.5625 -21.035156 5.425781 -20.347656 4.3125 -19.453125 L 4.03125 -19.625 L 3.359375 -22.03125 C 5.109375 -23.039062 6.867188 -23.945312 8.640625 -24.75 C 10.410156 -25.550781 11.6875 -25.953125 12.46875 -25.953125 C 14.894531 -25.953125 16.796875 -25.316406 18.171875 -24.046875 C 19.554688 -22.773438 20.25 -21.003906 20.25 -18.734375 C 20.25 -17.910156 20.117188 -16.234375 19.859375 -13.703125 C 19.441406 -9.597656 19.234375 -6.988281 19.234375 -5.875 C 19.234375 -5.050781 19.4375 -4.414062 19.84375 -3.96875 C 20.257812 -3.519531 20.820312 -3.296875 21.53125 -3.296875 C 22.125 -3.296875 22.738281 -3.4375 23.375 -3.71875 C 24.007812 -4 24.515625 -4.328125 24.890625 -4.703125 L 25.671875 -3.796875 C 25.109375 -2.867188 24.390625 -1.96875 23.515625 -1.09375 C 22.640625 -0.21875 21.734375 0.367188 20.796875 0.671875 Z M 10.40625 -3.359375 C 11.113281 -3.359375 11.941406 -3.609375 12.890625 -4.109375 C 13.835938 -4.609375 14.703125 -5.253906 15.484375 -6.046875 L 15.765625 -11.75 L 8.171875 -9.453125 C 7.085938 -9.117188 6.546875 -8.335938 6.546875 -7.109375 C 6.546875 -6.023438 6.90625 -5.128906 7.625 -4.421875 C 8.351562 -3.710938 9.28125 -3.359375 10.40625 -3.359375 Z M 10.40625 -3.359375 "/></g></g></g><g fill="#ffffff" fill-opacity="1"><g transform="translate(182.742403, 192.526324)"><g><path d="M 18.28125 -1.625 C 19.40625 -1.914062 20.207031 -2.347656 20.6875 -2.921875 C 21.175781 -3.503906 21.421875 -4.28125 21.421875 -5.25 L 21.640625 -16.328125 C 21.640625 -18.191406 21.238281 -19.625 20.4375 -20.625 C 19.632812 -21.632812 18.488281 -22.140625 17 -22.140625 C 15.800781 -22.140625 14.585938 -21.832031 13.359375 -21.21875 C 12.128906 -20.601562 11.050781 -19.941406 10.125 -19.234375 C 9.789062 -11.515625 9.625 -6.929688 9.625 -5.484375 C 9.625 -4.328125 9.769531 -3.515625 10.0625 -3.046875 C 10.363281 -2.578125 10.882812 -2.34375 11.625 -2.34375 C 12.039062 -2.34375 12.429688 -2.359375 12.796875 -2.390625 C 13.171875 -2.429688 13.4375 -2.453125 13.59375 -2.453125 L 13.703125 -2.234375 L 13.203125 0.171875 C 12.859375 0.128906 12.203125 0.0859375 11.234375 0.046875 C 10.265625 0.015625 9.222656 0 8.109375 0 C 7.140625 0 6.066406 0.046875 4.890625 0.140625 C 3.710938 0.234375 2.941406 0.296875 2.578125 0.328125 L 2.859375 -1.953125 C 3.929688 -2.140625 4.691406 -2.472656 5.140625 -2.953125 C 5.585938 -3.441406 5.8125 -4.207031 5.8125 -5.25 L 5.8125 -18.90625 C 5.8125 -20.164062 5.601562 -21.046875 5.1875 -21.546875 C 4.78125 -22.054688 4.078125 -22.3125 3.078125 -22.3125 L 2.453125 -22.3125 L 2.296875 -22.53125 L 2.453125 -24.375 C 4.054688 -24.632812 5.648438 -24.941406 7.234375 -25.296875 C 8.828125 -25.648438 9.847656 -25.882812 10.296875 -26 L 10.625 -25.5625 C 10.550781 -25.332031 10.4375 -24.851562 10.28125 -24.125 C 10.132812 -23.40625 10.046875 -22.648438 10.015625 -21.859375 L 10.125 -21.703125 C 14.375 -24.535156 17.113281 -25.953125 18.34375 -25.953125 C 20.6875 -25.953125 22.546875 -25.296875 23.921875 -23.984375 C 25.304688 -22.679688 26 -20.929688 26 -18.734375 C 26 -18.359375 25.890625 -16.644531 25.671875 -13.59375 C 25.367188 -9.707031 25.21875 -7.003906 25.21875 -5.484375 C 25.21875 -4.398438 25.363281 -3.601562 25.65625 -3.09375 C 25.957031 -2.59375 26.460938 -2.34375 27.171875 -2.34375 C 27.585938 -2.34375 27.976562 -2.359375 28.34375 -2.390625 C 28.71875 -2.429688 28.984375 -2.453125 29.140625 -2.453125 L 29.25 -2.234375 L 28.796875 0.171875 C 28.460938 0.128906 27.828125 0.0859375 26.890625 0.046875 C 25.960938 0.015625 24.941406 0 23.828125 0 C 22.859375 0 21.75 0.09375 20.5 0.28125 C 19.25 0.46875 18.4375 0.597656 18.0625 0.671875 Z M 18.28125 -1.625 "/></g></g></g><g fill="#ffffff" fill-opacity="1"><g transform="translate(213.390273, 192.526324)"><g/></g></g><g fill="#ffffff" fill-opacity="1"><g transform="translate(224.463781, 192.526324)"><g><path d="M 12.46875 0.671875 C 10.90625 0.671875 9.3125 0.566406 7.6875 0.359375 C 6.0625 0.160156 5.25 0.0390625 5.25 0 L 4.75 -0.453125 L 4.75 -35 C 4.75 -37.019531 4.0625 -38.03125 2.6875 -38.03125 C 2.382812 -38.03125 2.117188 -38.007812 1.890625 -37.96875 C 1.671875 -37.9375 1.523438 -37.898438 1.453125 -37.859375 L 1.28125 -38.03125 L 1.515625 -39.875 C 3.117188 -40.09375 4.773438 -40.390625 6.484375 -40.765625 C 8.203125 -41.140625 9.300781 -41.382812 9.78125 -41.5 L 10.125 -40.765625 C 9.863281 -40.390625 9.617188 -38.492188 9.390625 -35.078125 C 9.171875 -31.671875 8.984375 -27.320312 8.828125 -22.03125 C 10.515625 -23.226562 11.960938 -24.179688 13.171875 -24.890625 C 14.378906 -25.597656 15.191406 -25.953125 15.609375 -25.953125 C 17.691406 -25.953125 19.550781 -25.445312 21.1875 -24.4375 C 22.832031 -23.425781 24.109375 -22.015625 25.015625 -20.203125 C 25.929688 -18.398438 26.390625 -16.328125 26.390625 -13.984375 C 26.390625 -11.296875 25.765625 -8.832031 24.515625 -6.59375 C 23.265625 -4.363281 21.578125 -2.59375 19.453125 -1.28125 C 17.328125 0.0195312 15 0.671875 12.46875 0.671875 Z M 14.03125 -2.40625 C 16.53125 -2.40625 18.5 -3.253906 19.9375 -4.953125 C 21.375 -6.648438 22.09375 -8.96875 22.09375 -11.90625 C 22.09375 -13.769531 21.765625 -15.484375 21.109375 -17.046875 C 20.453125 -18.617188 19.554688 -19.859375 18.421875 -20.765625 C 17.285156 -21.679688 16.046875 -22.140625 14.703125 -22.140625 C 13.960938 -22.140625 13.015625 -21.847656 11.859375 -21.265625 C 10.703125 -20.691406 9.65625 -19.976562 8.71875 -19.125 L 8.5625 -3.578125 C 9.226562 -3.242188 10.082031 -2.960938 11.125 -2.734375 C 12.164062 -2.515625 13.132812 -2.40625 14.03125 -2.40625 Z M 14.03125 -2.40625 "/></g></g></g><g fill="#ffffff" fill-opacity="1"><g transform="translate(252.874588, 192.526324)"><g><path d="M 13.75 0.671875 C 11.445312 0.671875 9.398438 0.160156 7.609375 -0.859375 C 5.816406 -1.890625 4.4375 -3.34375 3.46875 -5.21875 C 2.5 -7.101562 2.015625 -9.257812 2.015625 -11.6875 C 2.015625 -14.1875 2.582031 -16.535156 3.71875 -18.734375 C 4.851562 -20.929688 6.367188 -22.679688 8.265625 -23.984375 C 10.171875 -25.296875 12.207031 -25.953125 14.375 -25.953125 C 17.09375 -25.953125 19.160156 -25.257812 20.578125 -23.875 C 21.992188 -22.5 22.703125 -20.488281 22.703125 -17.84375 C 22.703125 -16.757812 22.59375 -15.84375 22.375 -15.09375 L 21.640625 -14.421875 L 6.203125 -14.421875 C 6.171875 -10.804688 6.890625 -8.019531 8.359375 -6.0625 C 9.828125 -4.101562 11.890625 -3.125 14.546875 -3.125 C 16.628906 -3.125 18.898438 -3.703125 21.359375 -4.859375 L 21.703125 -4.75 L 22.3125 -3.125 C 20.96875 -2.15625 19.484375 -1.28125 17.859375 -0.5 C 16.242188 0.28125 14.875 0.671875 13.75 0.671875 Z M 16.546875 -17 C 17.109375 -17.070312 17.484375 -17.203125 17.671875 -17.390625 C 17.859375 -17.578125 17.953125 -17.953125 17.953125 -18.515625 C 17.953125 -20.003906 17.550781 -21.140625 16.75 -21.921875 C 15.945312 -22.703125 14.800781 -23.09375 13.3125 -23.09375 C 11.5625 -23.09375 10.0625 -22.492188 8.8125 -21.296875 C 7.5625 -20.109375 6.769531 -18.507812 6.4375 -16.5 Z M 16.546875 -17 "/></g></g></g><g fill="#ffffff" fill-opacity="1"><g transform="translate(277.929785, 192.526324)"><g><path d="M 11.515625 0.671875 C 8.984375 0.671875 7.191406 0.160156 6.140625 -0.859375 C 5.097656 -1.890625 4.578125 -3.632812 4.578125 -6.09375 L 4.578125 -19.859375 C 4.578125 -20.859375 4.351562 -21.5625 3.90625 -21.96875 C 3.46875 -22.382812 2.628906 -22.609375 1.390625 -22.640625 L 1.171875 -22.984375 L 1.453125 -24.65625 C 2.535156 -25.175781 3.585938 -25.816406 4.609375 -26.578125 C 5.640625 -27.347656 6.476562 -28.019531 7.125 -28.59375 C 7.78125 -29.175781 8.203125 -29.5625 8.390625 -29.75 L 9.5 -29.296875 C 9.46875 -29.109375 9.414062 -28.660156 9.34375 -27.953125 C 9.269531 -27.242188 9.175781 -26.296875 9.0625 -25.109375 L 17.28125 -25.28125 L 17.453125 -25.109375 L 16.9375 -22.140625 L 8.828125 -22.3125 C 8.566406 -18.207031 8.4375 -13.546875 8.4375 -8.328125 C 8.4375 -6.429688 8.765625 -5.085938 9.421875 -4.296875 C 10.078125 -3.515625 11.207031 -3.125 12.8125 -3.125 C 13.363281 -3.125 13.921875 -3.195312 14.484375 -3.34375 C 15.046875 -3.5 15.507812 -3.660156 15.875 -3.828125 C 16.25 -3.992188 16.492188 -4.097656 16.609375 -4.140625 L 17.171875 -2.6875 C 16.941406 -2.5 16.460938 -2.144531 15.734375 -1.625 C 15.015625 -1.101562 14.234375 -0.585938 13.390625 -0.078125 C 12.554688 0.421875 11.929688 0.671875 11.515625 0.671875 Z M 11.515625 0.671875 "/></g></g></g><g fill="#ffffff" fill-opacity="1"><g transform="translate(296.385623, 192.526324)"><g><path d="M 20.796875 0.671875 C 17.773438 0.671875 16.117188 -0.835938 15.828125 -3.859375 L 15.609375 -3.921875 C 14.265625 -2.578125 13.039062 -1.507812 11.9375 -0.71875 C 10.84375 0.0625 10.015625 0.453125 9.453125 0.453125 C 7.359375 0.453125 5.640625 -0.195312 4.296875 -1.5 C 2.960938 -2.8125 2.296875 -4.472656 2.296875 -6.484375 C 2.296875 -7.566406 2.566406 -8.515625 3.109375 -9.328125 C 3.648438 -10.148438 4.363281 -10.691406 5.25 -10.953125 L 15.875 -13.875 L 15.9375 -16.328125 C 15.9375 -18.191406 15.503906 -19.644531 14.640625 -20.6875 C 13.785156 -21.726562 12.578125 -22.25 11.015625 -22.25 C 9.972656 -22.25 8.875 -22.003906 7.71875 -21.515625 C 6.5625 -21.035156 5.425781 -20.347656 4.3125 -19.453125 L 4.03125 -19.625 L 3.359375 -22.03125 C 5.109375 -23.039062 6.867188 -23.945312 8.640625 -24.75 C 10.410156 -25.550781 11.6875 -25.953125 12.46875 -25.953125 C 14.894531 -25.953125 16.796875 -25.316406 18.171875 -24.046875 C 19.554688 -22.773438 20.25 -21.003906 20.25 -18.734375 C 20.25 -17.910156 20.117188 -16.234375 19.859375 -13.703125 C 19.441406 -9.597656 19.234375 -6.988281 19.234375 -5.875 C 19.234375 -5.050781 19.4375 -4.414062 19.84375 -3.96875 C 20.257812 -3.519531 20.820312 -3.296875 21.53125 -3.296875 C 22.125 -3.296875 22.738281 -3.4375 23.375 -3.71875 C 24.007812 -4 24.515625 -4.328125 24.890625 -4.703125 L 25.671875 -3.796875 C 25.109375 -2.867188 24.390625 -1.96875 23.515625 -1.09375 C 22.640625 -0.21875 21.734375 0.367188 20.796875 0.671875 Z M 10.40625 -3.359375 C 11.113281 -3.359375 11.941406 -3.609375 12.890625 -4.109375 C 13.835938 -4.609375 14.703125 -5.253906 15.484375 -6.046875 L 15.765625 -11.75 L 8.171875 -9.453125 C 7.085938 -9.117188 6.546875 -8.335938 6.546875 -7.109375 C 6.546875 -6.023438 6.90625 -5.128906 7.625 -4.421875 C 8.351562 -3.710938 9.28125 -3.359375 10.40625 -3.359375 Z M 10.40625 -3.359375 "/></g></g></g></svg>